# xmcd
#
# Track frame offsets:
# 150
# 12120
# 23797
# 37875
# 54327
# 68742
# 81780
# 99297
# 113355
# 126275
# 138927
# 150247
#
# Disc length: 2165 seconds
#
#
# Revision: 0
# Processed by: cddbd v1.5PL3 Copyright (c) Steve Scherf et al.
# Submitted via: FreeRIP 2.70 
#
DISCID=7e08730c
DTITLE=JULINHO E JANEL - TRIBUTO À BELMONTE E AMARAÍ
DYEAR=2003
DGENRE=Country
TTITLE0=QUERO ESQUECER
TTITLE1=LÁGRIMAS DA ALMA
TTITLE2=ADEUS MARIQUITA LINDA
TTITLE3=TU ÉS AS NÚVENS
TTITLE4=SE QUE TE PERDI
TTITLE5=ENTRE LÁGRMAS
TTITLE6=AVE MENSAGEIRA
TTITLE7=A ANDORINHA
TTITLE8=POMBINHA MENSAGEIRA
TTITLE9=A FRONHA
TTITLE10=PRESENÇA DE DEUS
TTITLE11=MORRENDO DE AMOR
EXTD=BY ROGER
EXTT0=
EXTT1=
EXTT2=
EXTT3=
EXTT4=
EXTT5=
EXTT6=
EXTT7=
EXTT8=
EXTT9=
EXTT10=
EXTT11=
PLAYORDER=
